<svg xmlns="http://www.w3.org/2000/svg" version="1.1" xmlns:xlink="http://www.w3.org/1999/xlink" width="260" height="260.75"><svg id="SvgjsSvg1029" xmlns="http://www.w3.org/2000/svg" xmlns:xlink="http://www.w3.org/1999/xlink" viewBox="0 0 260 260.75">
  <defs>
    <style>
      .cls-1 {
        fill: #303b70;
      }

      .cls-2 {
        fill:rgba(232, 246, 249, 0);
      }

      .cls-3 {
        fill: none;
      }

      .cls-4 {
        fill: #f58431;
      }

      .cls-5 {
        clip-path: url(#clippath-1);
      }

      .cls-6 {
        fill: #60ccf2;
      }

      .cls-7 {
        fill: #b54e36;
      }

      .cls-8 {
        fill: #0091d4;
      }

      .cls-9 {
        clip-path: url(#clippath);
      }
    </style>
    <clipPath id="SvgjsClipPath1028">
      <rect class="cls-3" x="4.82" y="10.38" width="250.36" height="250.36"></rect>
    </clipPath>
    <clipPath id="SvgjsClipPath1027">
      <path class="cls-6" d="M162.97,260c-.8-7.03.02-16.19,5.4-19.31,122.95-71.25,19.75-201.18-58.95-167.17-19.28,8.33-47.77,24.68-47.77,84.67,0,25.96-11.42,62.64,25.72,67.5,21.11,2.76,11.57,15.54-2.7,34.31h78.3Z"></path>
    </clipPath>
  </defs>
  <g id="SvgjsG1026" data-name="Layer_2">
    <g>
      <rect class="cls-2" width="260" height="260" rx="25.12" ry="25.12"></rect>
      <g class="cls-9">
        <g>
          <g>
            <path class="cls-6" d="M162.97,260c-.8-7.03.02-16.19,5.4-19.31,122.95-71.25,19.75-201.18-58.95-167.17-19.28,8.33-47.77,24.68-47.77,84.67,0,25.96-11.42,62.64,25.72,67.5,21.11,2.76,11.57,15.54-2.7,34.31h78.3Z"></path>
            <g class="cls-5">
              <path class="cls-8" d="M173.56,251c13.99,5.85,20.48,13.53,35.51,15.53,6.48.86,13.98,1.01,18.47-3.73,2.98-3.14,3.86-7.84,3.27-12.13-.6-4.29-2.5-8.28-4.49-12.13-9.4-18.19-34.47-52.95-48.52-67.84,0,0,11,33.85,8.58,45.84-4.04,19.99-8.73,25.6-15.06,27.03,4.81,1.87-2.51,5.44,2.25,7.43Z"></path>
              <path class="cls-8" d="M148.87,141.06c2.59.97,5.51,1.84,8.06.77,4.48-1.88,4.79-8.05,4.12-12.86-2.85-20.29-10.27-39.92-21.54-57.02-3.74-5.67-8.27-11.35-14.67-13.61-7.01-2.47-14.99-.26-21.11,3.97-5.38,3.71-12.16,9.96-14.95,16-2.93,6.36,2.31,13.16,5.63,18.37,8.17,12.8,18.98,23.9,31.52,32.45,7.14,4.86,14.85,8.9,22.94,11.94Z"></path>
            </g>
          </g>
          <path class="cls-4" d="M68.42,203.29l.12-1.1c-.19,2.05-1.87,3.64-3.92,3.71l-50.39,10.25c-3.84.14-5.78-10.1,3.3-15.81,6.32-3.97,15.27-8.5,28.03-19.94,9-8.07,13.49-27.21,16.99-33.98,4.01-7.77,28.67,18.64,5.87,56.86Z"></path>
          <path class="cls-4" d="M68.42,203.29s2.27,9.09,15.37,16.96c2.67,1.6-.42,6.01-3.42,5.39l-63.79-3.82c-1.95-.4-1.9-3.28.07-3.59l51.76-14.94Z"></path>
          <path class="cls-7" d="M15.06,219.29c-.12,0-.24,0-.35,0-2.04,0-3.69-1.67-3.68-3.71,0-2.04,1.66-3.68,3.7-3.68.11,0,.23,0,.34,0,10.79,0,21.39-1.72,31.52-5.12,6.69-2.25,13.17-5.23,19.26-8.87,1.75-1.05,4.02-.48,5.07,1.27,1.05,1.75.48,4.02-1.27,5.07-6.54,3.92-13.51,7.13-20.7,9.54-10.88,3.65-22.27,5.5-33.87,5.5Z"></path>
          <ellipse class="cls-1" cx="102.15" cy="145.07" rx="9.73" ry="18.27"></ellipse>
          <ellipse class="cls-1" cx="61.02" cy="172.34" rx="7.16" ry="2.88" transform="translate(-121.72 177.99) rotate(-72.27)"></ellipse>
          <ellipse class="cls-2" cx="94.55" cy="142.74" rx="6.33" ry="4.79"></ellipse>
          <g>
            <path class="cls-4" d="M235.58,118.59c4.16.35,8.16-2.19,9.49-6.33,1.54-4.82-1.12-9.97-5.94-11.51-4.07-1.3-8.37.4-10.54,3.86-24.6-41.96-62.1-46.18-86.56-43.52l-47.15-24.84c-4.51-2.38-9.62,1.84-8.13,6.74,23.58,77.3,63.88,111.58,84.71,124.75.2.12.4.22.59.31l23.77,44.34c3.94,7.36,13.33,9.11,18.7,3.49,15.68-16.4,40.05-51.39,21.05-97.3Z"></path>
            <path class="cls-1" d="M141.52,62.76l31.72,95.76c1.71,5.17-3.96,9.55-8.49,6.56-20.38-13.45-59.65-48.19-81.53-125.23-1.39-4.88,3.76-8.96,8.18-6.52l47.41,26.17c1.28.71,2.25,1.87,2.71,3.27Z"></path>
            <circle class="cls-1" cx="235.98" cy="109.38" r="9.57"></circle>
          </g>
          <path class="cls-1" d="M107.26,124.2s-10.19-4.71-15.62-7.51c-5.62-2.9-3.36-8.21,1.83-7.19,5.13,1.01,17.38,4.08,17.16,4.15,3.75,1.2,6.03,4.53,5.1,7.44h0c-.93,2.91-4.72,4.3-8.47,3.1Z"></path>
          <ellipse class="cls-2" cx="24.28" cy="203.19" rx="7.4" ry="2.33" transform="translate(-80.52 27.42) rotate(-23.99)"></ellipse>
        </g>
      </g>
    </g>
  </g>
</svg><style>@media (prefers-color-scheme: light) { :root { filter: none; } }
@media (prefers-color-scheme: dark) { :root { filter: none; } }
</style></svg>